<svg width="39" height="39" viewBox="0 0 39 39" fill="none" xmlns="http://www.w3.org/2000/svg">
<circle cx="19.2098" cy="19.0091" r="18.8793" stroke="#1E6DA4" stroke-width="1"/>
<path d="M26.5465 22.1013L29.3359 19.2493C29.4284 19.1547 29.4795 19.0273 29.478 18.895C29.4765 18.7628 29.4226 18.6366 29.328 18.5441L26.476 15.7547C26.4055 15.6855 26.3161 15.6389 26.219 15.6206C26.122 15.6023 26.0217 15.6132 25.9309 15.652C25.84 15.6908 25.7628 15.7557 25.7089 15.8384C25.6549 15.9211 25.6268 16.018 25.628 16.1168L25.6546 18.4389L9.22884 18.6208L9.23994 19.6193L25.6656 19.436L25.6908 21.7582C25.6917 21.857 25.722 21.9532 25.7777 22.0347C25.8335 22.1162 25.9122 22.1794 26.0038 22.2161C26.0955 22.2529 26.196 22.2616 26.2926 22.2412C26.3892 22.2207 26.4776 22.1721 26.5465 22.1013Z" fill="#1E6DA4"/>
</svg>
