<svg width="22" height="22" viewBox="0 0 22 22" fill="none" xmlns="http://www.w3.org/2000/svg">
<path d="M2.54926 2.33134H7.26243L8.78135 6.12917L6.34079 7.75621C6.19707 7.8521 6.07924 7.98198 5.99775 8.13433C5.91627 8.28668 5.87365 8.45679 5.87367 8.62956V8.65266C5.8743 8.6996 5.8764 8.74651 5.87997 8.79332C5.88627 8.87939 5.89677 8.99591 5.91671 9.13972C5.95765 9.42314 6.03638 9.81363 6.18963 10.2734C6.49825 11.1971 7.10288 12.3927 8.28064 13.5705C9.45841 14.7483 10.654 15.3529 11.5767 15.6615C12.0375 15.8148 12.427 15.8925 12.7125 15.9345C12.8737 15.957 13.0359 15.971 13.1985 15.9764L13.2122 15.9775H13.2205C13.4154 15.9774 13.6075 15.923 13.7732 15.8205C13.939 15.718 14.0729 15.5713 14.16 15.397L14.8633 13.9904L19.5198 14.7672V19.3019C17.3039 19.6221 11.3185 19.938 6.61581 15.2353C1.91314 10.5327 2.22805 4.54622 2.54926 2.33134ZM8.04971 9.13972L9.94652 7.87588C10.3472 7.60859 10.6439 7.21164 10.7866 6.75161C10.9294 6.29157 10.9096 5.79643 10.7307 5.34924L9.21173 1.55141C9.05586 1.16187 8.78685 0.827971 8.4394 0.592782C8.09195 0.357593 7.682 0.231905 7.26243 0.231934H2.49468C1.5405 0.231934 0.643001 0.894297 0.486595 1.9293C0.129696 4.28274 -0.354217 11.2339 5.13153 16.7196C10.6173 22.2054 17.5684 21.7204 19.9219 21.3646C20.9569 21.2071 21.6192 20.3107 21.6192 19.3565V14.7672C21.6193 14.2702 21.4431 13.7893 21.1219 13.4101C20.8007 13.0309 20.3554 12.7779 19.8652 12.6961L15.2087 11.9204C14.7658 11.8465 14.3109 11.9165 13.9108 12.1201C13.5106 12.3238 13.1863 12.6504 12.9854 13.052L12.6222 13.7794C12.4938 13.7478 12.3667 13.711 12.2412 13.6692C11.5904 13.453 10.6866 13.0079 9.76493 12.0862C8.84329 11.1646 8.39821 10.2608 8.18197 9.60894C8.13034 9.45485 8.08549 9.29824 8.04971 9.13972Z" fill="#1E6DA4"/>
</svg>
