<svg width="38" height="61" viewBox="0 0 38 61" fill="none" xmlns="http://www.w3.org/2000/svg">
<path d="M19.3436 33.5754V47.7705M2.30961 59.1265H36.3776M22.2877 4.80783L25.2828 10.8521C25.6916 11.6924 26.7818 12.4987 27.7017 12.6548L33.1355 13.5633C36.6104 14.1481 37.4281 16.6891 34.9241 19.1987L30.6996 23.4572C29.9842 24.1783 29.5924 25.5695 29.8139 26.5659L31.0233 31.8351C31.9772 36.0085 29.7798 37.6239 26.1175 35.4407L21.0272 32.4029C20.1073 31.8522 18.5913 31.8522 17.6544 32.4029L12.5613 35.4407C8.91597 37.6239 6.70155 35.9914 7.65546 31.8351L8.86487 26.5631C9.08631 25.5695 8.69453 24.1783 7.9791 23.4572L3.75467 19.1987C1.2677 16.6891 2.0683 14.1481 5.54324 13.5633L10.9771 12.6548C11.8799 12.4987 12.9701 11.6924 13.3789 10.8521L16.3769 4.80499C18.0121 1.52594 20.6694 1.52594 22.2877 4.80499M7.98762 56.2875C7.98762 52.2731 7.98762 50.2659 9.23678 49.0196C10.4803 47.7705 12.4874 47.7705 16.5046 47.7705H22.1826C26.197 47.7705 28.2042 47.7705 29.4505 49.0196C30.6996 50.2659 30.6996 52.2731 30.6996 56.2875V59.1265H7.98762V56.2875Z" stroke="#FD6502" stroke-width="3" strokeLinecap="round" strokeLinejoin="round"/>
</svg>
