<svg width="44" height="42" viewBox="0 0 44 42" fill="none" xmlns="http://www.w3.org/2000/svg">
<path fill-rule="evenodd" clipRule="evenodd" d="M30.5279 3.67261V7.01659L34.4853 10.1825V3.67261H30.5279ZM37.4533 12.5569V3.17794C37.4533 1.81265 36.3452 0.70459 34.9799 0.70459H30.0332C28.6679 0.70459 27.5599 1.81265 27.5599 3.17794V4.64217L26.7545 3.99712C25.4387 2.94419 23.8037 2.37053 22.1185 2.37053C20.4333 2.37053 18.7982 2.94419 17.4824 3.99712L1.40564 16.8586C1.09812 17.1044 0.900866 17.4624 0.857264 17.8537C0.813663 18.245 0.92729 18.6376 1.17315 18.9451C1.41901 19.2526 1.77696 19.4499 2.16826 19.4935C2.55956 19.5371 2.95215 19.4234 3.25967 19.1776L4.80502 17.9389V38.2996H2.33167C1.93808 38.2996 1.56062 38.4559 1.28231 38.7342C1.00401 39.0125 0.847656 39.39 0.847656 39.7836C0.847656 40.1772 1.00401 40.5546 1.28231 40.8329C1.56062 41.1112 1.93808 41.2676 2.33167 41.2676H41.9053C42.2989 41.2676 42.6764 41.1112 42.9547 40.8329C43.233 40.5546 43.3893 40.1772 43.3893 39.7836C43.3893 39.39 43.233 39.0125 42.9547 38.7342C42.6764 38.4559 42.2989 38.2996 41.9053 38.2996H39.432V17.9389L40.9793 19.1776C41.2873 19.4176 41.6776 19.5266 42.0654 19.4808C42.4532 19.435 42.8074 19.2383 43.0511 18.9331C43.2948 18.628 43.4084 18.239 43.3672 17.8507C43.3261 17.4624 43.1336 17.1059 42.8313 16.8586L37.4533 12.5569ZM36.4639 15.5645L24.9005 6.31415C24.111 5.6822 23.1298 5.33788 22.1185 5.33788C21.1072 5.33788 20.126 5.6822 19.3365 6.31415L7.77304 15.5645V38.2996H14.6984V29.7912C14.6984 28.4774 14.6984 27.3436 14.8211 26.4354C14.9517 25.4619 15.2465 24.5299 16.0024 23.774C16.7582 23.0182 17.6922 22.7234 18.6637 22.5928C19.5719 22.4701 20.7057 22.4701 22.0215 22.4701H22.2154C23.5313 22.4701 24.6651 22.4701 25.5733 22.5928C26.5468 22.7234 27.4787 23.0182 28.2346 23.774C28.9904 24.5299 29.2853 25.4619 29.4159 26.4354C29.5385 27.3436 29.5385 28.4774 29.5385 29.7932V38.2996H36.4639V15.5645ZM26.5705 38.2996V29.8902C26.5705 28.4497 26.5666 27.5157 26.4755 26.8311C26.3885 26.188 26.25 25.9862 26.1352 25.8734C26.0204 25.7606 25.8206 25.6202 25.1775 25.5331C24.4909 25.4421 23.559 25.4381 22.1185 25.4381C20.678 25.4381 19.7441 25.4421 19.0594 25.5331C18.4164 25.6202 18.2145 25.7606 18.1018 25.8734C17.989 25.9862 17.8485 26.188 17.7614 26.8311C17.6704 27.5177 17.6665 28.4497 17.6665 29.8902V38.2996H26.5705ZM22.1185 12.5767C21.7937 12.5767 21.4721 12.6407 21.172 12.765C20.8719 12.8893 20.5992 13.0714 20.3696 13.3011C20.1399 13.5308 19.9577 13.8034 19.8334 14.1035C19.7091 14.4036 19.6451 14.7252 19.6451 15.05C19.6451 15.3748 19.7091 15.6965 19.8334 15.9965C19.9577 16.2966 20.1399 16.5693 20.3696 16.799C20.5992 17.0286 20.8719 17.2108 21.172 17.3351C21.4721 17.4594 21.7937 17.5234 22.1185 17.5234C22.7745 17.5234 23.4036 17.2628 23.8674 16.799C24.3313 16.3351 24.5918 15.706 24.5918 15.05C24.5918 14.3941 24.3313 13.765 23.8674 13.3011C23.4036 12.8373 22.7745 12.5767 22.1185 12.5767ZM16.6771 15.05C16.6771 13.6069 17.2504 12.2229 18.2709 11.2024C19.2913 10.1819 20.6753 9.60866 22.1185 9.60866C23.5616 9.60866 24.9457 10.1819 25.9661 11.2024C26.9866 12.2229 27.5599 13.6069 27.5599 15.05C27.5599 16.4932 26.9866 17.8772 25.9661 18.8977C24.9457 19.9181 23.5616 20.4914 22.1185 20.4914C20.6753 20.4914 19.2913 19.9181 18.2709 18.8977C17.2504 17.8772 16.6771 16.4932 16.6771 15.05Z" fill="#FD6502"/>
</svg>
