<svg width="48" height="39" viewBox="0 0 48 39" fill="none" xmlns="http://www.w3.org/2000/svg">
<path d="M42.9215 33.9203H47.1289V38.1277H0.847656V33.9203H5.05504V2.36492C5.05504 1.80699 5.27668 1.27191 5.6712 0.877388C6.06572 0.482869 6.6008 0.26123 7.15874 0.26123H28.1957C28.7536 0.26123 29.2887 0.482869 29.6832 0.877388C30.0777 1.27191 30.2994 1.80699 30.2994 2.36492V33.9203H38.7141V17.0908H34.5067V12.8834H40.8178C41.3758 12.8834 41.9108 13.105 42.3054 13.4995C42.6999 13.8941 42.9215 14.4291 42.9215 14.9871V33.9203ZM9.26243 4.46862V33.9203H26.092V4.46862H9.26243ZM13.4698 17.0908H21.8846V21.2982H13.4698V17.0908ZM13.4698 8.676H21.8846V12.8834H13.4698V8.676Z" fill="#FD6502"/>
</svg>
