<svg width="11" height="12" viewBox="0 0 11 12" fill="none" xmlns="http://www.w3.org/2000/svg">
<path fillRule="evenodd" clipRule="evenodd" d="M5.52375 0.725098C6.78782 0.725098 8.00012 1.22613 8.89395 2.11796C9.78779 3.0098 10.2899 4.21939 10.2899 5.48064C10.2899 7.10492 9.40237 8.43436 8.46714 9.38811C7.99988 9.85947 7.49003 10.2868 6.94408 10.6647L6.71848 10.8179L6.61256 10.8882L6.41291 11.015L6.23497 11.1234L6.01467 11.2512C5.86514 11.3364 5.69593 11.3812 5.52375 11.3812C5.35157 11.3812 5.18237 11.3364 5.03284 11.2512L4.81253 11.1234L4.53715 10.9543L4.43547 10.8882L4.21835 10.744C3.62937 10.3464 3.08077 9.89225 2.58037 9.38811C1.64514 8.43383 0.757568 7.10492 0.757568 5.48064C0.757568 4.21939 1.25972 3.0098 2.15355 2.11796C3.04738 1.22613 4.25968 0.725098 5.52375 0.725098ZM5.52375 1.78188C4.54059 1.78188 3.59769 2.17157 2.90249 2.86522C2.20728 3.55888 1.81672 4.49967 1.81672 5.48064C1.81672 6.70757 2.49034 7.78443 3.33713 8.64889C3.70123 9.01664 4.09478 9.35417 4.51385 9.65812L4.7564 9.83037C4.83477 9.88497 4.91015 9.9357 4.98253 9.98255L5.18906 10.1146L5.37071 10.2251L5.52375 10.3144L5.76471 10.1722L5.95906 10.0507C6.06251 9.98519 6.17319 9.91175 6.29111 9.83037L6.53365 9.65812C6.95273 9.35417 7.34627 9.01664 7.71037 8.64889C8.55716 7.78496 9.23079 6.70757 9.23079 5.48064C9.23079 4.49967 8.84022 3.55888 8.14502 2.86522C7.44982 2.17157 6.50692 1.78188 5.52375 1.78188ZM5.52375 3.36706C6.08556 3.36706 6.62436 3.58974 7.02162 3.98612C7.41888 4.38249 7.64206 4.92008 7.64206 5.48064C7.64206 6.04119 7.41888 6.57879 7.02162 6.97516C6.62436 7.37153 6.08556 7.59421 5.52375 7.59421C4.96194 7.59421 4.42314 7.37153 4.02589 6.97516C3.62863 6.57879 3.40545 6.04119 3.40545 5.48064C3.40545 4.92008 3.62863 4.38249 4.02589 3.98612C4.42314 3.58974 4.96194 3.36706 5.52375 3.36706ZM5.52375 4.42385C5.24285 4.42385 4.97345 4.53519 4.77482 4.73338C4.57619 4.93156 4.4646 5.20036 4.4646 5.48064C4.4646 5.76092 4.57619 6.02971 4.77482 6.2279C4.97345 6.42609 5.24285 6.53743 5.52375 6.53743C5.80466 6.53743 6.07406 6.42609 6.27269 6.2279C6.47132 6.02971 6.5829 5.76092 6.5829 5.48064C6.5829 5.20036 6.47132 4.93156 6.27269 4.73338C6.07406 4.53519 5.80466 4.42385 5.52375 4.42385Z" fill="#1E6DA4"/>
</svg>
