<svg width="26" height="27" viewBox="0 0 26 27" fill="none" xmlns="http://www.w3.org/2000/svg">
<path d="M15.9089 18.3057C15.9089 15.6547 18.1517 13.5859 20.8158 13.5859C23.4799 13.5859 25.7227 15.6534 25.7227 18.3057C25.7227 20.5066 24.5777 22.4066 23.5427 23.6889C22.9633 24.4043 22.3165 25.0625 21.6114 25.6543L21.47 25.7695L21.4308 25.8009L21.4177 25.8113L21.4138 25.8139H21.4125L20.2714 25.8519L20.2688 25.8493L20.2649 25.8467L20.2518 25.8375L20.2086 25.8087L20.0634 25.704C19.3426 25.1594 18.6848 24.5362 18.1019 23.846C17.042 22.5819 15.9102 20.682 15.9102 18.3057M20.2714 25.8519L20.855 26.2405L21.4125 25.8166L20.2714 25.8519ZM20.787 23.7688C21.1259 23.4547 21.5721 23.0059 22.017 22.4563C22.9447 21.3074 23.7612 19.8432 23.7612 18.3057C23.7612 16.8271 22.4894 15.5487 20.8171 15.5487C19.1461 15.5487 17.8729 16.8271 17.8729 18.3057C17.8729 20.0421 18.7038 21.5076 19.6067 22.5819C19.9665 23.0096 20.3613 23.4066 20.787 23.7688ZM20.8158 18.82C20.9025 18.82 20.9857 18.7855 21.0471 18.7242C21.1084 18.6628 21.1429 18.5796 21.1429 18.4928C21.1429 18.4061 21.1084 18.3229 21.0471 18.2615C20.9857 18.2002 20.9025 18.1657 20.8158 18.1657C20.729 18.1657 20.6458 18.2002 20.5845 18.2615C20.5231 18.3229 20.4887 18.4061 20.4887 18.4928C20.4887 18.5796 20.5231 18.6628 20.5845 18.7242C20.6458 18.7855 20.729 18.82 20.8158 18.82ZM19.1801 18.4928C19.1801 18.059 19.3525 17.643 19.6592 17.3363C19.966 17.0295 20.382 16.8572 20.8158 16.8572C21.2496 16.8572 21.6656 17.0295 21.9724 17.3363C22.2791 17.643 22.4514 18.059 22.4514 18.4928C22.4514 18.9266 22.2791 19.3427 21.9724 19.6494C21.6656 19.9562 21.2496 20.1285 20.8158 20.1285C20.382 20.1285 19.966 19.9562 19.6592 19.6494C19.3525 19.3427 19.1801 18.9266 19.1801 18.4928Z" fill="white"/>
<path fill-rule="evenodd" clip-rule="evenodd" d="M10.3478 2.46374C8.64278 2.46374 7.30287 3.80627 7.30287 5.40788C7.30287 7.0095 8.64147 8.35203 10.3478 8.35203C12.0541 8.35203 13.394 7.0095 13.394 5.40788C13.394 3.80627 12.0541 2.46374 10.3478 2.46374ZM5.34011 5.40788C5.34011 2.6731 7.60644 0.500977 10.3504 0.500977C13.093 0.500977 15.3594 2.6731 15.3594 5.40788C15.3594 8.14267 13.093 10.3148 10.3504 10.3148C7.60775 10.3148 5.33618 8.14267 5.33618 5.40788M7.03724 13.2144C6.79779 13.0613 6.61852 13.0522 6.53478 13.0744C6.34635 13.1268 6.15923 13.1826 5.97343 13.2419L4.68585 13.6541C4.24475 13.7899 3.84137 14.0267 3.50771 14.3456C3.17405 14.6645 2.91929 15.0567 2.76365 15.4913C2.72881 15.6072 2.70644 15.7265 2.69692 15.8472L2.18529 20.6873L2.18268 20.7043C2.08454 21.3939 2.45223 21.9213 3.01096 22.0521C4.42023 22.3792 6.79386 22.7456 10.3465 22.7456C10.6067 22.7456 10.8564 22.849 11.0404 23.0331C11.2244 23.2171 11.3278 23.4667 11.3278 23.727C11.3278 23.9873 11.2244 24.2369 11.0404 24.4209C10.8564 24.605 10.6067 24.7084 10.3465 24.7084C6.65908 24.7084 4.13497 24.3263 2.56738 23.9625C0.88071 23.5713 0.0262546 21.9867 0.236924 20.4466L0.744626 15.6404C0.768179 15.4154 0.810051 15.1366 0.909498 14.8501C1.1647 14.1276 1.58467 13.4746 2.13613 12.9426C2.68759 12.4107 3.35538 12.0145 4.08656 11.7856L5.37544 11.3721C5.58742 11.3049 5.80027 11.2417 6.01399 11.1823C6.81349 10.9625 7.57373 11.2255 8.10237 11.567C8.58652 11.8811 9.37686 12.2592 10.3465 12.2592C11.3148 12.2592 12.1051 11.8798 12.5892 11.5657C13.1166 11.2255 13.8781 10.9625 14.6776 11.1823C14.8913 11.2417 15.1042 11.3049 15.3162 11.3721L16.6051 11.7856C16.7303 11.8228 16.8469 11.8846 16.9479 11.9675C17.0489 12.0503 17.1324 12.1525 17.1934 12.268C17.2544 12.3836 17.2918 12.5102 17.3032 12.6403C17.3147 12.7705 17.3 12.9016 17.2601 13.026C17.2202 13.1504 17.1559 13.2656 17.0708 13.3649C16.9858 13.4641 16.8818 13.5453 16.765 13.6038C16.6482 13.6623 16.5208 13.6969 16.3905 13.7055C16.2601 13.7142 16.1293 13.6967 16.0058 13.6541L14.7182 13.2419C14.5318 13.1823 14.3442 13.1264 14.1555 13.0744C14.0731 13.0522 13.8938 13.0613 13.6557 13.2144C12.9844 13.6489 11.8238 14.222 10.3452 14.222C8.86654 14.222 7.70851 13.6489 7.03724 13.2144Z" fill="white"/>
</svg>
