<svg width="26" height="20" viewBox="0 0 26 20" fill="none" xmlns="http://www.w3.org/2000/svg">
<path d="M5.30268 9.83951L1.07526 3.20089C0.886696 2.90386 0.781742 2.56147 0.771454 2.20979C0.761166 1.85811 0.845924 1.51017 1.0168 1.20262C1.18767 0.895069 1.43834 0.639303 1.74238 0.462267C2.04642 0.285231 2.39259 0.193479 2.7444 0.19668L23.9955 0.40976C24.3174 0.413439 24.6312 0.511378 24.898 0.691467C25.1649 0.871555 25.3731 1.1259 25.4969 1.42305C25.6208 1.7202 25.6548 2.04713 25.5949 2.36343C25.5349 2.67972 25.3836 2.97151 25.1595 3.20271L10.3485 18.4456C10.1028 18.6974 9.79381 18.8783 9.45399 18.9693C9.11417 19.0603 8.7561 19.0581 8.41745 18.9628C8.0788 18.8676 7.77208 18.6828 7.52956 18.4279C7.28703 18.1731 7.11767 17.8576 7.03929 17.5146L5.30268 9.83951ZM3.1489 2.38718L6.75353 8.05055L13.3054 5.3199C13.573 5.20837 13.874 5.20771 14.142 5.31807C14.4101 5.42843 14.6234 5.64077 14.7349 5.90838C14.8465 6.17599 14.8471 6.47694 14.7368 6.74503C14.6264 7.01312 14.4141 7.22639 14.1465 7.33792L7.59459 10.0686L9.07895 16.6156L22.7115 2.58394L3.1489 2.38718Z" fill="white"/>
</svg>
