<svg width="31" height="32" viewBox="0 0 31 32" fill="none" xmlns="http://www.w3.org/2000/svg">
<path d="M26.4827 4.92468C25.0639 3.49159 23.374 2.35533 21.5115 1.58218C19.6491 0.809024 17.6513 0.414454 15.6347 0.421479C7.18543 0.421479 0.299093 7.30782 0.299093 15.7571C0.299093 18.4652 1.01094 21.096 2.34178 23.4172L0.175293 31.3713L8.29962 29.2358C10.5435 30.4583 13.0659 31.1082 15.6347 31.1082C24.084 31.1082 30.9704 24.2219 30.9704 15.7726C30.9704 11.6717 29.3765 7.81849 26.4827 4.92468ZM15.6347 28.5085C13.3444 28.5085 11.1006 27.8895 9.13527 26.7288L8.67102 26.4503L3.84285 27.7192L5.12727 23.0149L4.81777 22.5351C3.54534 20.5032 2.86969 18.1546 2.86793 15.7571C2.86793 8.73151 8.59365 3.00579 15.6193 3.00579C19.0237 3.00579 22.227 4.33663 24.6257 6.75072C25.8133 7.93295 26.7545 9.33915 27.3947 10.8878C28.0349 12.4365 28.3614 14.0968 28.3551 15.7726C28.3861 22.7982 22.6603 28.5085 15.6347 28.5085ZM22.6294 18.9759C22.2425 18.7902 20.3546 17.8617 20.0141 17.7224C19.6582 17.5986 19.4106 17.5367 19.1475 17.9081C18.8845 18.295 18.1571 19.1616 17.9405 19.4092C17.7238 19.6723 17.4917 19.7032 17.1049 19.5021C16.718 19.3164 15.48 18.8985 14.0253 17.5986C12.8802 16.5773 12.1219 15.3238 11.8898 14.937C11.6732 14.5501 11.8589 14.3489 12.06 14.1477C12.2303 13.9775 12.4469 13.699 12.6326 13.4823C12.8183 13.2657 12.8957 13.0954 13.0195 12.8478C13.1433 12.5848 13.0814 12.3681 12.9885 12.1824C12.8957 11.9967 12.1219 10.1088 11.8124 9.33503C11.5029 8.59224 11.178 8.68509 10.9458 8.66961H10.203C9.93996 8.66961 9.53762 8.76246 9.18169 9.14933C8.84125 9.53621 7.85085 10.4647 7.85085 12.3526C7.85085 14.2406 9.22812 16.0666 9.41382 16.3142C9.59952 16.5773 12.1219 20.446 15.9597 22.1018C16.8727 22.5042 17.5846 22.7363 18.1417 22.9065C19.0547 23.2006 19.8903 23.1541 20.5558 23.0613C21.2986 22.953 22.8306 22.1328 23.1401 21.2352C23.465 20.3377 23.465 19.5794 23.3567 19.4092C23.2484 19.239 23.0163 19.1616 22.6294 18.9759Z" fill="#1E6DA4"/>
</svg>
