<svg width="32" height="30" viewBox="0 0 32 30" fill="none" xmlns="http://www.w3.org/2000/svg">
<path d="M4.19094 11.6709C4.90077 11.2502 5.57398 11.1755 6.27688 11.32C7.1956 11.5097 7.82921 12.2204 7.83911 13.1543C7.85891 14.9395 7.86089 16.7256 7.83812 18.5108C7.82623 19.4574 7.14412 20.1681 6.20659 20.3372C5.16114 20.525 3.95235 20.2242 3.55734 19.0052C3.4821 18.7723 3.32766 18.8116 3.16431 18.8578C2.82474 18.9541 2.47725 18.9462 2.13173 18.9266C1.12193 18.8686 0.385368 18.2129 0.261618 17.222C0.150737 16.3265 0.157667 15.4211 0.250727 14.5256C0.365568 13.4148 1.11005 12.7326 2.22578 12.7267C2.68911 12.7237 2.83959 12.5596 2.92176 12.1329C3.22074 10.5719 3.81771 9.12095 4.68891 7.78798C4.8582 7.52846 4.89483 7.31809 4.77306 7.02122C4.5216 6.40585 4.65228 5.82292 5.09581 5.33141C7.50646 2.65857 10.5091 1.05625 14.086 0.625685C18.6915 0.0712615 22.6753 1.47403 26.0364 4.63543C26.3235 4.90478 26.5809 5.20558 26.8442 5.49852C27.364 6.07654 27.5233 6.72533 27.1808 7.44687C27.0838 7.65134 27.1125 7.80862 27.2273 7.99343C28.0589 9.3323 28.6133 10.7813 28.9074 12.3236C28.9678 12.6421 29.1242 12.705 29.4113 12.7139C30.9527 12.7601 31.6586 13.4797 31.6784 15.0063C31.6853 15.547 31.6843 16.0876 31.6784 16.6283C31.6606 18.3073 30.5409 19.2136 28.8698 18.8765C28.5371 18.8096 28.4044 18.8558 28.2441 19.1792C26.6393 22.434 24.4524 25.157 21.0735 26.7622C20.3112 27.124 19.5211 27.4081 18.6975 27.588C18.3955 27.6538 18.2114 27.7925 18.0757 28.0736C17.755 28.7391 17.2075 29.0802 16.4551 29.0773C16.1413 29.0763 15.8284 29.0822 15.5146 29.0753C14.5266 29.0517 13.7524 28.2722 13.7613 27.3157C13.7702 26.3779 14.5236 25.621 15.4978 25.5836C15.8274 25.5708 16.1571 25.5777 16.4878 25.5816C17.0303 25.5885 17.5065 25.7812 17.8223 26.2157C18.051 26.5303 18.2876 26.544 18.6232 26.4565C21.0863 25.8146 23.0733 24.4413 24.7315 22.5608C25.2097 22.0182 25.6314 21.4313 26.0314 20.8287C26.2294 20.5309 26.166 20.4129 25.8186 20.3441C24.5682 20.0974 24.0415 19.4535 24.0405 18.2001C24.0385 16.6607 24.0999 15.1174 24.0247 13.5819C23.9395 11.8469 25.2988 10.9042 27.0422 11.3563C27.1768 11.3907 27.3283 11.548 27.4481 11.4104C27.554 11.2895 27.4263 11.1293 27.3818 10.9956C27.1264 10.2141 26.7937 9.46698 26.371 8.7592C26.2433 8.54589 26.1057 8.39843 25.8275 8.42596C25.1236 8.49575 24.5999 8.18118 24.1464 7.66903C22.3535 5.64696 20.1142 4.40933 17.4204 4.06036C13.6593 3.57278 10.4626 4.73668 7.83911 7.44294C7.38469 7.91184 6.88969 8.19495 6.23035 8.13695C5.95711 8.11237 5.76307 8.18315 5.61061 8.42891C4.99977 9.41193 4.53051 10.452 4.19094 11.6709ZM16.6442 1.63623C13.5445 1.6264 11.3249 2.22309 9.25976 3.38896C8.06087 4.06626 6.99265 4.91264 6.06403 5.92613C5.7304 6.28985 5.71951 6.64276 6.02542 6.8718C6.36103 7.12247 6.67189 7.02908 6.94513 6.73909C7.10254 6.57198 7.26688 6.40978 7.43122 6.24857C11.7734 1.97832 18.7668 1.65196 23.501 5.49262C24.1039 5.98217 24.6375 6.53856 25.1741 7.09396C25.3938 7.32104 25.6631 7.37806 25.9364 7.20898C26.1868 7.05268 26.273 6.80102 26.172 6.52381C26.1235 6.3911 26.0185 6.27216 25.9205 6.16304C23.2604 3.19432 19.9102 1.72274 16.6442 1.63623ZM6.70753 15.8143C6.70753 14.963 6.71842 14.1108 6.70357 13.2605C6.69367 12.6824 6.41053 12.4465 5.77594 12.4337C4.95621 12.417 4.61565 12.6156 4.60773 13.2211C4.58496 14.9404 4.58199 16.6597 4.60971 18.379C4.6206 19.0367 4.95819 19.2392 5.78782 19.2136C6.43132 19.194 6.69862 18.9443 6.70555 18.3191C6.71545 17.4845 6.70852 16.6499 6.70753 15.8143ZM25.177 15.8124C25.177 16.6312 25.1721 17.4491 25.179 18.268C25.185 18.9531 25.4443 19.1989 26.1472 19.2107C26.9798 19.2244 27.2778 19.0033 27.2848 18.2807C27.3016 16.6273 27.3006 14.9739 27.2857 13.3204C27.2798 12.6451 26.9689 12.42 26.1581 12.4298C25.4414 12.4386 25.1859 12.6736 25.179 13.3568C25.1711 14.1756 25.177 14.9945 25.177 15.8124ZM1.40111 15.7976C1.40012 15.7976 1.39913 15.7976 1.39814 15.7976C1.39814 16.1899 1.38527 16.5821 1.40111 16.9733C1.42388 17.5454 1.72781 17.7912 2.39112 17.803C3.07521 17.8148 3.43458 17.5563 3.44943 16.9891C3.47022 16.2056 3.46923 15.4211 3.44844 14.6377C3.43359 14.0823 3.10293 13.8414 2.43171 13.8395C1.74662 13.8375 1.43477 14.0636 1.40507 14.621C1.38329 15.0132 1.40111 15.4054 1.40111 15.7976ZM30.4844 15.8193C30.4844 15.4113 30.5042 15.0014 30.4795 14.5954C30.4488 14.0764 30.1459 13.8503 29.5281 13.8404C28.8302 13.8286 28.4658 14.0459 28.447 14.5639C28.4163 15.3956 28.4173 16.2292 28.445 17.0608C28.4619 17.5622 28.8371 17.805 29.4727 17.802C30.1142 17.7991 30.4508 17.5592 30.4815 17.0431C30.5033 16.6371 30.4844 16.2272 30.4844 15.8193ZM16.0155 27.9399C16.0155 27.9409 16.0155 27.9419 16.0155 27.9438C16.1799 27.9438 16.3442 27.9497 16.5076 27.9429C16.8838 27.9271 17.0808 27.7138 17.0927 27.354C17.1045 26.9923 16.9135 26.7554 16.5452 26.7278C16.1868 26.7013 15.8215 26.6954 15.4641 26.7288C15.1018 26.7622 14.8998 27.0129 14.9176 27.3639C14.9335 27.6843 15.1186 27.9143 15.474 27.9389C15.6542 27.9497 15.8354 27.9399 16.0155 27.9399Z" fill="white"/>
<path d="M15.977 7.08694C19.741 7.09677 22.7843 9.88462 23.1051 13.6299C23.2892 15.7827 22.5675 17.623 21.0785 19.1712C20.8181 19.4415 20.6974 19.7099 20.7053 20.0815C20.7251 21.0144 20.7092 21.9492 20.7112 22.8821C20.7122 23.1751 20.6627 23.4434 20.3717 23.5919C20.0697 23.7452 19.8341 23.5869 19.6034 23.4159C18.849 22.8585 18.0778 22.3228 17.3452 21.7379C16.9344 21.4105 16.5166 21.2886 15.9899 21.2926C12.5477 21.3201 9.62912 18.9864 8.89355 15.654C7.92137 11.2412 11.3646 7.07514 15.977 7.08694ZM9.90237 14.2001C9.90732 17.7557 12.9575 20.4963 16.5413 20.1483C16.8829 20.1149 17.1452 20.1867 17.4086 20.3882C17.9828 20.8286 18.5679 21.2533 19.153 21.6799C19.2549 21.7546 19.3569 21.907 19.4856 21.8499C19.6499 21.7772 19.5707 21.5875 19.5727 21.4499C19.5816 20.8768 19.6024 20.3027 19.5688 19.7315C19.5401 19.2479 19.7044 18.9068 20.0638 18.5755C21.62 17.1442 22.219 15.3404 21.926 13.2819C21.4745 10.1127 18.6619 7.98837 15.3306 8.23019C12.3071 8.45137 9.89841 11.0996 9.90237 14.2001Z" fill="white"/>
<path d="M15.967 16.1975C15.0453 16.2063 14.282 15.4858 14.2572 14.5824C14.2315 13.6701 15.0047 12.8975 15.9442 12.8975C16.8649 12.8975 17.6222 13.6337 17.6282 14.5352C17.6351 15.4366 16.8817 16.1886 15.967 16.1975ZM15.9234 15.0631C16.2659 15.0591 16.453 14.8674 16.459 14.5529C16.4639 14.2668 16.3075 14.0505 15.9877 14.0387C15.6601 14.026 15.4442 14.198 15.4284 14.5204C15.4145 14.834 15.5868 15.0385 15.9234 15.0631Z" fill="white"/>
<path d="M12.409 16.1976C11.4814 16.2074 10.7032 15.4701 10.6983 14.5756C10.6933 13.6712 11.4467 12.9094 12.3575 12.8986C13.2842 12.8877 14.0455 13.6103 14.0663 14.5225C14.0851 15.419 13.3247 16.1877 12.409 16.1976ZM12.4545 15.0632C12.7189 15.0219 12.9258 14.8508 12.901 14.5245C12.8792 14.2423 12.7169 14.033 12.3932 14.0389C12.0595 14.0438 11.8635 14.2315 11.8675 14.5549C11.8714 14.8725 12.0575 15.0612 12.4545 15.0632Z" fill="white"/>
<path d="M19.5083 16.1975C18.5906 16.2004 17.8213 15.4504 17.8193 14.5509C17.8174 13.6495 18.5807 12.8994 19.5004 12.8984C20.426 12.8975 21.2071 13.6573 21.1893 14.542C21.1715 15.4622 20.427 16.1955 19.5083 16.1975ZM19.5598 14.0328C19.1865 14.0269 18.9994 14.2294 18.9846 14.5362C18.9697 14.8547 19.1638 15.0513 19.5023 15.0581C19.8211 15.064 19.9993 14.8802 20.0171 14.5843C20.0369 14.2668 19.8696 14.0643 19.5598 14.0328Z" fill="white"/>
</svg>
