<svg width="32" height="29" viewBox="0 0 32 29" fill="none" xmlns="http://www.w3.org/2000/svg">
<path d="M21.6926 17.0898H20.4489L15.526 12.2187H17.5599C18.0263 12.2187 18.415 12.1021 18.7389 11.8689C19.0498 11.6358 19.2571 11.3248 19.3348 10.9232H15.526V10.1718H19.3348C19.2571 9.78317 19.0498 9.4593 18.7389 9.2261C18.415 8.99291 18.0263 8.87632 17.5599 8.87632H15.526V8.02128H21.3299V8.87632H19.6198C19.9826 9.23906 20.1898 9.66658 20.2546 10.1718H21.3299V10.9232H20.2546C20.1639 11.571 19.8789 12.0892 19.4125 12.4778C18.9461 12.8665 18.3502 13.0738 17.6377 13.0738L21.6926 17.0898Z" fill="white"/>
<path d="M0.545166 13.2703C0.545166 10.3672 0.545166 7.46316 0.545166 4.56005C0.545166 3.91699 0.707608 3.75623 1.35084 3.75529C2.43378 3.75436 3.51766 3.74595 4.6006 3.7609C4.90868 3.76557 5.03845 3.69454 5.02538 3.35525C5.00577 2.82342 5.20742 2.63742 5.73302 2.63649C7.14272 2.63368 8.55148 2.63368 9.96117 2.63649C10.4606 2.63742 10.6707 2.8337 10.6483 3.34123C10.6333 3.69734 10.7743 3.76557 11.0945 3.7609C12.2008 3.74408 13.3071 3.75249 14.4134 3.75529C14.9007 3.75623 15.0678 3.89456 15.1238 4.37124C15.1462 4.56005 15.2097 4.59276 15.3656 4.51705C15.3759 4.51238 15.3871 4.50771 15.3983 4.50397C15.6793 4.39274 16.0733 4.35816 16.2133 4.1516C16.3776 3.90951 16.0191 3.63472 15.923 3.35806C15.726 2.78884 15.6149 2.21308 15.6382 1.61021C15.6578 1.11016 15.9715 0.8606 16.4532 0.993324C16.7893 1.08586 17.1226 1.19521 17.4475 1.3214C17.6659 1.40552 17.82 1.36252 17.9731 1.19334C18.1607 0.985846 18.3615 0.790499 18.5659 0.599825C18.8646 0.321291 19.1653 0.318487 19.4631 0.594217C19.6769 0.792368 19.8841 0.997997 20.0811 1.21204C20.2277 1.37187 20.378 1.39991 20.5805 1.3242C20.9073 1.20082 21.2387 1.0896 21.5748 0.995193C22.0593 0.859665 22.3749 1.10455 22.3963 1.60273C22.43 2.40282 22.2591 3.1571 21.8623 3.85156C21.7354 4.07308 21.7316 4.16655 22.007 4.2675C24.6136 5.22928 26.4284 7.0089 27.4292 9.60637C27.5114 9.82041 27.6206 9.90266 27.854 9.92883C29.6726 10.1289 31.185 11.6542 31.3306 13.4114C31.4949 15.4042 30.3289 17.1361 28.4814 17.6595C28.3143 17.7072 28.0482 17.6577 28.0118 17.8848C27.966 18.168 27.9884 18.4652 28.0118 18.754C28.023 18.8849 28.1714 18.8643 28.2732 18.8643C28.6924 18.8671 29.1115 18.8625 29.5307 18.8671C30.0152 18.8718 30.2197 19.0662 30.2197 19.542C30.2225 22.4685 30.2225 25.3959 30.2197 28.3223C30.2187 28.7803 30.0124 28.9869 29.5568 28.9878C28.1247 28.9925 26.6917 28.9925 25.2596 28.9878C24.7826 28.9869 24.5921 28.785 24.5828 28.2999C24.5678 27.5054 24.5697 27.5101 23.793 27.7213C22.3329 28.1176 20.8709 28.5074 19.4108 28.9018C19.1727 28.9663 18.9337 28.9934 18.6863 28.9916C17.5679 28.9822 16.4504 28.9766 15.332 28.9766C15.0211 28.9766 14.7429 28.8972 14.4675 28.7485C11.9133 27.3764 9.35902 26.0015 6.79076 24.6556C6.31744 24.4079 6.10179 24.1182 6.12232 23.5686C6.15407 22.7161 6.25209 22.8386 5.3904 22.8348C4.03953 22.8283 2.68865 22.8339 1.33777 22.833C0.715076 22.832 0.545166 22.6657 0.545166 22.0497C0.545166 19.1242 0.545166 16.1968 0.545166 13.2703ZM23.5148 19.427C23.7127 19.427 23.9115 19.4158 24.1085 19.4298C24.368 19.4485 24.5734 19.4223 24.6892 19.1289C24.7658 18.9363 24.9721 18.8662 25.1868 18.8681C25.5126 18.8709 25.8384 18.8699 26.1642 18.8671C26.9008 18.8606 26.7981 18.955 26.8271 18.2194C26.8401 17.8941 26.744 17.7549 26.4163 17.6708C24.7854 17.253 23.5633 15.8108 23.4728 14.2386C23.3645 12.3599 24.2962 10.8345 25.9878 10.1775C26.2968 10.0578 26.294 9.93164 26.182 9.66712C24.9749 6.80421 21.8913 4.65539 18.3643 4.97692C16.2021 5.17413 14.4236 6.106 13.0326 7.76132C11.7135 9.33064 11.1954 11.1766 11.2112 13.2067C11.2262 15.2116 11.2047 17.2165 11.2019 19.2214C11.2019 19.4934 11.1944 19.7672 11.0301 19.9925C10.7136 20.4271 10.7202 20.8702 10.9545 21.33C11.0096 21.4394 10.9918 21.6207 11.1468 21.6347C11.312 21.6497 11.312 21.4655 11.3662 21.359C11.8087 20.4767 12.5108 20.0046 13.505 19.9888C13.843 19.9831 14.1828 19.9598 14.517 19.9925C15.5038 20.0906 16.3356 19.8261 17.1795 19.2569C18.6527 18.2643 20.2809 18.2503 21.8623 19.041C22.4029 19.3111 22.9117 19.5167 23.5148 19.427ZM9.35808 16.9941C10.0256 16.923 10.0471 16.8978 10.0489 16.2734C10.0536 14.8163 10.0555 13.3582 10.0704 11.901C10.0723 11.7 10.0228 11.6318 9.82207 11.6365C9.37956 11.6468 8.93704 11.643 8.49453 11.6384C8.05949 11.6337 7.81769 11.4243 7.81489 11.0607C7.81209 10.6943 8.05388 10.4775 8.48333 10.4728C8.96038 10.4681 9.4393 10.456 9.91543 10.4766C10.2048 10.4896 10.3719 10.4121 10.4336 10.1074C10.4793 9.88116 10.5745 9.66338 10.6604 9.44654C11.299 7.83422 12.3156 6.51259 13.7123 5.48538C13.8588 5.37789 14.0082 5.27321 13.9503 5.06477C13.8859 4.83204 13.6805 4.92831 13.5358 4.92644C12.6975 4.9171 11.8591 4.92831 11.0208 4.91803C10.7939 4.91523 10.6716 4.97318 10.5792 5.20124C10.3579 5.74615 9.94717 6.04619 9.33661 6.04245C8.33489 6.03684 7.33317 6.03684 6.33144 6.04245C5.73583 6.04619 5.32412 5.75737 5.10566 5.22928C5.00017 4.97318 4.86387 4.91242 4.6118 4.9171C3.78559 4.93018 2.95752 4.93766 2.1313 4.91429C1.78682 4.90495 1.70373 5.02178 1.70373 5.35266C1.71306 10.6467 1.71306 15.9397 1.70373 21.2337C1.7028 21.5637 1.78775 21.674 2.13037 21.6721C4.4475 21.6581 6.76555 21.6646 9.08361 21.6646C9.80433 21.6646 9.78566 21.6702 9.58214 20.9692C9.49252 20.6608 9.34315 20.5841 9.03973 20.5879C7.74674 20.6047 6.45468 20.5963 5.16168 20.5935C4.70236 20.5926 4.4559 20.3804 4.45963 20.0037C4.46337 19.6308 4.70983 19.4279 5.17475 19.427C6.46775 19.4251 7.76074 19.4354 9.0528 19.4233C10.2002 19.413 10.0237 19.6289 10.0508 18.3905C10.0564 18.1166 9.94063 18.1082 9.73338 18.1643C9.16763 18.3185 8.58975 18.3643 8.0044 18.3596C7.70659 18.3568 7.43679 18.3204 7.30423 18.0147C7.16792 17.7007 7.29676 17.4558 7.52828 17.2361C7.74767 17.0277 7.95586 16.8071 8.16031 16.5837C8.23686 16.5005 8.2574 16.3912 8.15658 16.3043C8.07349 16.2323 7.98107 16.2519 7.90171 16.3164C7.82983 16.3753 7.76354 16.4417 7.69726 16.5071C7.15299 17.0501 6.61338 17.5979 6.06351 18.1362C5.7825 18.412 5.43521 18.426 5.19249 18.1932C4.94042 17.9512 4.94976 17.5885 5.2373 17.2969C5.84972 16.6735 6.46494 16.0528 7.09137 15.4434C7.48254 15.063 7.95959 14.9462 8.47773 15.1247C8.98932 15.3014 9.29553 15.6687 9.41223 16.208C9.47385 16.4744 9.38702 16.7146 9.35808 16.9941ZM16.7632 23.3442C16.7632 23.3452 16.7632 23.3461 16.7632 23.3461C17.8816 23.3461 18.9991 23.3414 20.1175 23.3489C20.4713 23.3517 20.7047 23.5845 20.715 23.9022C20.7253 24.2406 20.49 24.4874 20.1324 24.5098C20.0279 24.5163 19.9233 24.5126 19.8178 24.5126C17.7332 24.5126 15.6485 24.4986 13.5638 24.5182C12.4575 24.5285 11.6864 24.0714 11.2766 23.0377C11.2131 22.8778 11.1197 22.8311 10.961 22.832C9.8314 22.8358 8.70178 22.8339 7.57216 22.8348C7.46667 22.8348 7.36304 22.833 7.3145 22.962C7.209 23.2396 7.33317 23.5798 7.6039 23.7237C10.0489 25.0285 12.4958 26.3315 14.938 27.641C15.1714 27.7662 15.403 27.8288 15.669 27.826C16.6353 27.8157 17.6025 27.8242 18.5687 27.8204C18.719 27.8195 18.8749 27.8195 19.0177 27.7802C20.7822 27.3054 22.5438 26.8222 24.3083 26.3455C24.5072 26.2922 24.5902 26.1959 24.5893 25.98C24.5818 24.2892 24.5818 22.5984 24.5893 20.9085C24.5902 20.657 24.4913 20.586 24.257 20.5926C23.8032 20.6047 23.3477 20.5757 22.8949 20.6019C22.4225 20.629 22.0192 20.5103 21.6121 20.2598C20.6123 19.6439 19.5396 19.5438 18.4296 19.9383C17.8172 20.1561 17.3158 20.5655 16.7846 20.9206C16.5419 21.0833 16.2973 21.1646 16.0032 21.1599C15.1994 21.1468 14.3956 21.144 13.5928 21.1599C12.7357 21.1767 12.1728 21.8805 12.4015 22.6217C12.5406 23.0723 12.9262 23.3396 13.4798 23.3433C14.573 23.3489 15.6681 23.3442 16.7632 23.3442ZM25.7516 23.9611C25.7516 25.1276 25.7581 26.2931 25.7469 27.4596C25.7441 27.726 25.8142 27.8335 26.0998 27.8279C26.9727 27.812 27.8465 27.8148 28.7204 27.827C28.9818 27.8307 29.0611 27.7391 29.0611 27.4821C29.0536 25.1155 29.0527 22.7479 29.063 20.3813C29.0639 20.0906 28.9519 20.028 28.6914 20.0317C27.8297 20.0439 26.968 20.0458 26.1064 20.0308C25.8291 20.0261 25.7451 20.1205 25.7479 20.3935C25.7581 21.5824 25.7516 22.7722 25.7516 23.9611ZM24.636 13.8638C24.6463 15.3612 25.9374 16.6426 27.4152 16.6221C28.9229 16.6015 30.1907 15.32 30.1683 13.8386C30.1459 12.3253 28.8837 11.071 27.3919 11.0794C25.9038 11.0888 24.6257 12.3796 24.636 13.8638ZM16.9135 2.44394C16.9947 2.94867 17.2244 3.35806 17.5212 3.7366C17.6053 3.84315 17.7266 3.83661 17.8433 3.82166C18.621 3.72258 19.3977 3.72071 20.1754 3.82072C20.2893 3.83568 20.4153 3.85343 20.5021 3.74875C20.8186 3.37021 21.0408 2.94773 21.1183 2.45422C21.0725 2.44394 21.0585 2.43553 21.0511 2.43927C20.3005 2.81501 19.6703 2.70378 19.1821 1.98408C19.0756 1.82706 18.9561 1.86631 18.8404 1.99436C17.9824 2.94493 17.9796 2.74117 17.004 2.43833C16.9947 2.43646 16.9816 2.44114 16.9135 2.44394ZM7.84476 4.8741C8.15844 4.8741 8.47119 4.8741 8.78487 4.8741C9.50745 4.8741 9.49812 4.8741 9.49532 4.14131C9.49438 3.88334 9.4113 3.79548 9.15363 3.79922C8.3881 3.81231 7.62164 3.79735 6.85611 3.80577C6.11952 3.81418 6.18861 3.65248 6.18487 4.53855C6.18394 4.77316 6.2885 4.8769 6.52189 4.8741C6.96254 4.86943 7.40318 4.87317 7.84476 4.8741Z" fill="white"/>
<path d="M6.47523 12.7102C7.09139 12.7102 7.70662 12.7065 8.32277 12.7121C8.72888 12.7158 8.96787 12.9299 8.97627 13.2776C8.98561 13.6421 8.74008 13.8748 8.32091 13.8767C7.06619 13.8814 5.81147 13.8814 4.55581 13.8767C4.14971 13.8748 3.91071 13.6589 3.90231 13.3112C3.89391 12.9457 4.13664 12.7167 4.55768 12.713C5.19717 12.7065 5.83667 12.7102 6.47523 12.7102Z" fill="white"/>
<path d="M7.83921 8.28082C7.30521 8.28082 6.77027 8.2855 6.23627 8.27895C5.81616 8.27428 5.5725 8.04622 5.5809 7.68076C5.5893 7.33212 5.82736 7.11621 6.23347 7.11434C7.30241 7.10967 8.37134 7.10967 9.43935 7.11434C9.86039 7.11621 10.1041 7.34708 10.0957 7.71254C10.0872 8.06024 9.84826 8.27521 9.44308 8.27895C8.90721 8.2855 8.37321 8.28082 7.83921 8.28082Z" fill="white"/>
<path d="M5.34563 10.4725C5.61263 10.4725 5.87963 10.4641 6.1457 10.4743C6.51446 10.4884 6.74319 10.7211 6.73945 11.0623C6.73572 11.3885 6.51353 11.6268 6.16624 11.6343C5.59769 11.6464 5.02915 11.6474 4.4606 11.6333C4.11892 11.6249 3.89859 11.3763 3.90139 11.0482C3.90419 10.7211 4.12545 10.4902 4.47367 10.4753C4.76495 10.4631 5.05529 10.4734 5.34563 10.4725Z" fill="white"/>
<path d="M28.6355 12.1035C28.8521 12.1241 29.0276 12.2222 29.1433 12.4176C29.2619 12.6176 29.2591 12.8232 29.1256 13.0092C29.0313 13.1401 28.9118 13.2541 28.7942 13.3653C28.0912 14.0261 27.3892 14.6879 26.6806 15.3431C26.3352 15.6628 26.0215 15.6796 25.761 15.4123C25.4893 15.1337 25.5229 14.8131 25.8805 14.4748C26.6395 13.7551 27.406 13.0429 28.1678 12.326C28.2994 12.2017 28.446 12.1157 28.6355 12.1035Z" fill="white"/>
<path d="M26.8523 12.6374C26.8467 12.9477 26.5452 13.2365 26.238 13.2262C25.9421 13.2159 25.6639 12.9327 25.6583 12.6374C25.6527 12.3299 25.9477 12.0308 26.2558 12.0308C26.5648 12.0308 26.8579 12.3289 26.8523 12.6374Z" fill="white"/>
<path d="M28.5702 14.4827C28.881 14.494 29.1648 14.8005 29.148 15.1062C29.1312 15.4043 28.8465 15.6782 28.5524 15.6782C28.2443 15.6782 27.9512 15.3791 27.9559 15.0716C27.9605 14.7613 28.2639 14.4715 28.5702 14.4827Z" fill="white"/>
</svg>
