<svg width="31" height="33" viewBox="0 0 31 33" fill="none" xmlns="http://www.w3.org/2000/svg">
<g clip-path="url(#clip0_71_14)">
<path d="M13.3703 0.688965C13.7684 0.870693 14.1928 1.01456 14.5587 1.24425C14.9682 1.50085 15.2371 1.90385 15.3628 2.35985C15.4318 2.61226 15.5602 2.64843 15.7968 2.64759C18.1605 2.64002 20.5242 2.64254 22.8879 2.64254C23.4816 2.64254 23.6248 2.778 23.6248 3.34169C23.6248 12.9767 23.6248 22.6108 23.6248 32.2457C23.6248 32.7918 23.4772 32.9323 22.9088 32.9323C15.6108 32.9323 8.31284 32.9323 1.01486 32.9323C0.448169 32.9323 0.304096 32.7926 0.304096 32.2424C0.304096 26.8587 0.303223 21.4741 0.305842 16.0904C0.305842 15.9668 0.309335 15.8347 0.350374 15.7202C0.431579 15.4939 0.632409 15.3585 0.858561 15.4367C1.02359 15.4939 1.1633 15.6656 1.26808 15.8162C1.32396 15.8969 1.28467 16.0408 1.28467 16.1561C1.28467 21.2991 1.28467 26.4414 1.28467 31.5844C1.28467 31.7081 1.28467 31.8318 1.28467 31.9715C8.41151 31.9715 15.5078 31.9715 22.625 31.9715C22.625 22.5224 22.625 13.0818 22.625 3.61428C20.7765 3.61428 18.9245 3.61428 17.0699 3.61428C17.2175 3.92979 17.3624 4.24108 17.5301 4.59865C17.6069 4.59865 17.723 4.59865 17.8383 4.59865C18.873 4.59865 19.9077 4.59696 20.9424 4.59949C21.4235 4.60033 21.5956 4.76271 21.5956 5.22376C21.5964 13.5992 21.5964 21.9747 21.5956 30.3494C21.5956 30.8138 21.4253 30.9787 20.9485 30.9787C14.9682 30.9795 8.98868 30.9795 3.00831 30.9787C2.54291 30.9787 2.37701 30.8214 2.37701 30.3755C2.37614 21.9899 2.37614 13.6043 2.37701 5.21787C2.37701 4.75177 2.53855 4.60033 3.02665 4.59949C4.15828 4.5978 5.29079 4.59865 6.40147 4.59865C6.55776 4.26127 6.70271 3.94745 6.85639 3.61428C5.02447 3.61428 3.18208 3.61428 1.28467 3.61428C1.28467 3.72113 1.28467 3.84144 1.28467 3.96176C1.28467 7.1521 1.28467 10.3433 1.28467 13.5336C1.28467 13.6388 1.29165 13.744 1.2803 13.8483C1.25236 14.115 1.09432 14.2748 0.817522 14.2883C0.53636 14.3018 0.372203 14.1436 0.315447 13.887C0.295364 13.7961 0.304969 13.6985 0.304969 13.6043C0.304969 10.1826 0.304096 6.76172 0.304969 3.34001C0.304969 2.77716 0.447296 2.64338 1.04367 2.64338C3.39688 2.64338 5.7492 2.64338 8.10241 2.64338C8.22029 2.64338 8.33904 2.64338 8.46739 2.64338C8.67608 1.86431 9.11791 1.2779 9.86273 0.934634C10.0854 0.831992 10.3281 0.769733 10.5613 0.688965C11.4964 0.688965 12.4333 0.688965 13.3703 0.688965ZM3.38378 5.55608C3.38378 13.7254 3.38378 21.8712 3.38378 30.0137C9.13624 30.0137 14.8608 30.0137 20.5966 30.0137C20.5966 21.8544 20.5966 13.7162 20.5966 5.56282C19.5715 5.56282 18.5656 5.56282 17.5484 5.56282C17.5432 5.66546 17.5362 5.74875 17.5353 5.83204C17.5257 6.39742 17.3869 6.52867 16.7887 6.52951C15.6126 6.53035 14.4355 6.53035 13.2594 6.52951C12.7922 6.52951 12.5512 6.3705 12.5425 6.06257C12.5338 5.74959 12.7704 5.58637 13.2384 5.58553C14.219 5.58469 15.1996 5.58553 16.1793 5.58553C16.2945 5.58553 16.4098 5.58553 16.5181 5.58553C16.649 4.5061 16.1269 3.78423 15.1253 3.60251C14.6337 3.51332 14.5717 3.45191 14.5071 2.98328C14.3936 2.16719 13.7859 1.6422 12.9354 1.63462C12.3364 1.62958 11.7374 1.63294 11.1384 1.63378C10.1046 1.63462 9.53965 2.10914 9.40431 3.09097C9.35628 3.43845 9.2192 3.5638 8.8577 3.58904C7.83085 3.66224 7.17422 4.56163 7.42919 5.58553C7.53834 5.58553 7.65622 5.58553 7.77322 5.58553C8.79745 5.58553 9.82081 5.58217 10.845 5.58806C11.1769 5.58974 11.3864 5.78409 11.3829 6.05584C11.3803 6.31244 11.1769 6.52194 10.8695 6.52362C9.55188 6.53287 8.23338 6.53371 6.91576 6.52362C6.58047 6.52109 6.41282 6.33011 6.39448 5.9961C6.38662 5.85392 6.39361 5.71089 6.39361 5.55608C5.36937 5.55608 4.39229 5.55608 3.38378 5.55608Z" fill="white"/>
<path d="M28.2017 29.0394C28.2017 29.5055 28.199 29.9455 28.2025 30.3863C28.2069 31.019 27.9371 31.4927 27.3591 31.8099C27.2717 31.8578 27.2097 31.9899 27.1853 32.0934C27.1547 32.2238 27.1835 32.3651 27.1705 32.5006C27.1469 32.7572 26.9845 32.9053 26.7278 32.9255C26.4684 32.9457 26.2169 32.8052 26.2388 32.5696C26.2885 32.0345 25.9925 31.7611 25.5979 31.4716C25.2975 31.2512 25.1927 30.8852 25.1927 30.5108C25.1927 30.0288 25.1927 29.5458 25.1927 29.0419C24.7387 28.9796 24.6662 28.6894 24.6671 28.3091C24.6767 25.2231 24.6723 22.1379 24.6723 19.0519C24.6723 18.9787 24.6688 18.9046 24.674 18.8314C24.6933 18.5513 24.874 18.367 25.1386 18.3569C25.4136 18.346 25.638 18.5336 25.6468 18.823C25.6616 19.3371 25.6529 19.8511 25.6529 20.366C25.6529 20.8035 25.6529 21.2419 25.6529 21.6953C26.3584 21.6953 27.0281 21.6953 27.7188 21.6953C27.7188 19.2504 27.7188 16.8223 27.7188 14.3715C27.0421 14.3715 26.3724 14.3715 25.6529 14.3715C25.6529 14.4666 25.6529 14.5659 25.6529 14.666C25.6529 15.3374 25.6564 16.0096 25.6511 16.681C25.6485 17.0192 25.4494 17.2363 25.1613 17.238C24.8714 17.2396 24.674 17.0243 24.674 16.6844C24.6714 14.7947 24.6758 12.9059 24.6697 11.0163C24.6688 10.6823 24.8487 10.5174 25.1901 10.4433C25.1604 9.84431 25.177 9.23098 25.7437 8.85827C26.024 8.67317 26.3977 8.53351 26.7321 8.52678C27.662 8.50827 28.1047 9.10983 28.2209 10.4484C28.6548 10.5191 28.7326 10.8161 28.7247 11.1921C28.7107 11.8946 28.723 12.598 28.7256 13.3014C28.7256 13.3207 28.7369 13.3409 28.757 13.4057C28.9238 13.4057 29.1045 13.4023 29.2853 13.4065C30.0912 13.4259 30.733 13.9997 30.7426 14.7762C30.7627 16.4134 30.7522 18.0507 30.7478 19.6879C30.747 20.0068 30.5453 20.2079 30.2615 20.2112C29.9672 20.2146 29.7725 20.0059 29.7716 19.6652C29.769 18.1853 29.7699 16.7054 29.7699 15.2255C29.7699 14.3993 29.6415 14.2891 28.7203 14.3724C28.7203 14.4994 28.7203 14.6315 28.7203 14.7636C28.7203 19.2664 28.7186 23.7692 28.7238 28.2712C28.7247 28.6523 28.6775 28.9737 28.2017 29.0394ZM27.7179 28.0609C27.7179 26.2554 27.7179 24.4684 27.7179 22.6738C27.0246 22.6738 26.3549 22.6738 25.6756 22.6738C25.6756 24.4793 25.6756 26.2663 25.6756 28.0609C26.3663 28.0609 27.036 28.0609 27.7179 28.0609ZM27.7214 11.4294C27.0107 11.4294 26.3427 11.4294 25.6756 11.4294C25.6756 12.0957 25.6756 12.7385 25.6756 13.3771C26.3741 13.3771 27.05 13.3771 27.7214 13.3771C27.7214 12.7133 27.7214 12.0789 27.7214 11.4294ZM26.1759 29.0394C26.1759 29.5517 26.1663 30.0405 26.1794 30.5285C26.1873 30.8078 26.4064 30.9955 26.6832 30.9997C26.9609 31.0039 27.1975 30.8272 27.2097 30.5479C27.2307 30.0506 27.2159 29.5526 27.2159 29.0394C26.8648 29.0394 26.5435 29.0394 26.1759 29.0394ZM26.1907 10.4375C26.5418 10.4375 26.8718 10.4375 27.1975 10.4375C27.2648 9.78121 27.1076 9.47328 26.712 9.4573C26.3016 9.44047 26.1366 9.74167 26.1907 10.4375Z" fill="white"/>
<path d="M11.9319 15.3204C10.9731 15.3204 10.0153 15.3229 9.05652 15.3195C8.58675 15.3179 8.42609 15.1664 8.42522 14.7138C8.42172 12.8561 8.4226 10.9985 8.42522 9.14079C8.42609 8.67385 8.59549 8.50726 9.07049 8.50726C10.9985 8.50474 12.9264 8.50474 14.8544 8.50726C15.3311 8.50811 15.5014 8.67301 15.5023 9.13911C15.5049 10.9968 15.5058 12.8544 15.5023 14.7121C15.5014 15.1681 15.3416 15.3187 14.8736 15.3204C13.8922 15.3229 12.9125 15.3204 11.9319 15.3204ZM9.42151 14.3486C11.1347 14.3486 12.8138 14.3486 14.492 14.3486C14.492 12.7038 14.492 11.0851 14.492 9.47312C14.1401 9.47312 13.8188 9.47312 13.4687 9.47312C13.4687 9.93501 13.473 10.3742 13.4678 10.8134C13.4617 11.25 13.3036 11.4023 12.8592 11.4048C12.3039 11.4082 11.7485 11.4057 11.194 11.4057C10.5732 11.4057 10.4571 11.2921 10.4562 10.6846C10.4553 10.2808 10.4562 9.87696 10.4562 9.47143C10.079 9.47143 9.75943 9.47143 9.42238 9.47143C9.42151 11.1036 9.42151 12.7139 9.42151 14.3486ZM12.468 10.4474C12.468 10.0991 12.468 9.78946 12.468 9.4647C12.1249 9.4647 11.8035 9.4647 11.4586 9.4647C11.4586 9.79535 11.4586 10.1142 11.4586 10.4474C11.8 10.4474 12.1231 10.4474 12.468 10.4474Z" fill="white"/>
<path d="M13.9576 24.1243C12.6627 24.1243 11.3669 24.1251 10.072 24.1234C9.66507 24.1226 9.43979 23.9476 9.44765 23.6456C9.45463 23.3545 9.67467 23.1803 10.0615 23.1803C12.6845 23.1786 15.3075 23.1778 17.9305 23.1803C18.3191 23.1803 18.5339 23.3545 18.5374 23.6506C18.5409 23.9493 18.3287 24.1218 17.9419 24.1226C16.6138 24.1251 15.2857 24.1243 13.9576 24.1243Z" fill="white"/>
<path d="M13.9794 28.0363C12.7168 28.0363 11.4542 28.0363 10.1924 28.0363C10.0833 28.0363 9.97328 28.0405 9.86675 28.0271C9.6179 27.9943 9.47557 27.8453 9.45287 27.6106C9.42929 27.3742 9.5463 27.2 9.78467 27.1319C9.90692 27.0966 10.0423 27.0932 10.1706 27.0932C12.7177 27.0915 15.2638 27.0915 17.8109 27.0923C17.9296 27.0923 18.0528 27.0923 18.1671 27.1193C18.423 27.1807 18.554 27.3515 18.5339 27.6047C18.5129 27.8571 18.3575 28.0027 18.0938 28.0296C17.9969 28.0397 17.8982 28.0363 17.8004 28.0363C16.5264 28.0363 15.2525 28.0363 13.9794 28.0363Z" fill="white"/>
<path d="M13.9768 20.2136C12.7037 20.2136 11.4298 20.2136 10.1567 20.2136C10.0694 20.2136 9.98116 20.2195 9.89559 20.2094C9.63538 20.1791 9.47472 20.0344 9.45202 19.7837C9.42844 19.5145 9.58212 19.3471 9.84669 19.2848C9.94973 19.2604 10.0632 19.2696 10.1715 19.2696C12.7186 19.2688 15.2656 19.2688 17.8127 19.2696C17.9209 19.2696 18.0344 19.2596 18.1375 19.284C18.402 19.3462 18.5548 19.5111 18.5321 19.7829C18.5103 20.0361 18.3505 20.1774 18.0903 20.2094C18.0048 20.2195 17.9166 20.2136 17.8292 20.2136C16.5457 20.2136 15.2612 20.2136 13.9768 20.2136Z" fill="white"/>
<path d="M5.3891 27.5672C5.39085 26.7545 6.06057 26.1193 6.90755 26.126C7.72921 26.1328 8.39631 26.7831 8.39457 27.5731C8.39282 28.3564 7.71436 29.0143 6.90057 29.0219C6.0693 29.0303 5.38736 28.3741 5.3891 27.5672ZM6.89533 28.0762C7.1695 28.072 7.41224 27.8356 7.41312 27.5714C7.41399 27.2888 7.16426 27.0608 6.86564 27.0725C6.57749 27.0835 6.36444 27.3056 6.3723 27.5857C6.37928 27.86 6.61504 28.0804 6.89533 28.0762Z" fill="white"/>
<path d="M6.9015 22.2154C7.72578 22.2204 8.39463 22.8649 8.3955 23.6549C8.39725 24.4499 7.69609 25.1213 6.8753 25.1112C6.03968 25.1011 5.37869 24.4424 5.39004 23.6296C5.39964 22.8346 6.06762 22.2103 6.9015 22.2154ZM6.89539 23.1619C6.60375 23.1577 6.3776 23.3655 6.37061 23.6439C6.36363 23.9317 6.60462 24.1698 6.89713 24.1639C7.17131 24.158 7.41318 23.9216 7.41318 23.6574C7.41318 23.3857 7.18266 23.1652 6.89539 23.1619Z" fill="white"/>
<path d="M5.38911 19.7376C5.39173 18.9391 6.04923 18.3056 6.87961 18.3023C7.71699 18.2989 8.40068 18.9535 8.39544 19.7536C8.3902 20.5385 7.71349 21.1906 6.8962 21.1973C6.06407 21.204 5.38649 20.5478 5.38911 19.7376ZM6.89271 20.2483C7.16863 20.2457 7.4105 20.0135 7.41312 19.7494C7.41574 19.4683 7.16601 19.2403 6.86739 19.2496C6.57924 19.2589 6.36444 19.4793 6.37143 19.7586C6.37754 20.0329 6.6098 20.2508 6.89271 20.2483Z" fill="white"/>
<path d="M12.4514 3.12258C12.4479 3.38424 12.213 3.5971 11.9405 3.58448C11.6812 3.5727 11.4717 3.359 11.476 3.10996C11.4795 2.84831 11.717 2.63293 11.986 2.64555C12.2435 2.65817 12.4548 2.87439 12.4514 3.12258Z" fill="white"/>
</g>
<defs>
<clipPath id="clip0_71_14">
<rect width="30.4528" height="32.2441" fill="white" transform="translate(0.301147 0.688965)"/>
</clipPath>
</defs>
</svg>
