<svg width="30" height="31" viewBox="0 0 30 31" fill="none" xmlns="http://www.w3.org/2000/svg">
<g clip-path="url(#clip0_71_27)">
<path d="M7.56725 30.7054C7.49059 30.7054 7.41322 30.7054 7.33656 30.7054C6.23015 28.9921 5.10855 27.2878 4.1164 25.5007C2.55368 22.6844 0.922262 19.8994 0.191162 16.6897C0.191162 16.0562 0.191162 15.4228 0.191162 14.7893C0.256968 14.5016 0.316266 14.2117 0.39075 13.9256C1.39303 10.054 5.22859 7.6417 8.98172 8.52108C9.87191 8.72975 9.88131 8.72379 9.88276 7.78255C9.88493 6.19965 9.88203 4.61676 9.8842 3.03461C9.88565 2.03897 9.88854 2.03897 10.8243 2.03748C11.3811 2.03674 11.9379 2.03748 12.4948 2.03748C13.4059 2.03674 13.4059 2.03674 13.416 1.08655C13.4254 0.265297 13.4327 0.254118 14.2187 0.253373C17.8272 0.251882 21.4365 0.252628 25.0457 0.252628C26.2244 0.252628 26.2396 0.252628 26.2714 1.46365C26.283 1.91228 26.4688 2.04866 26.8723 2.03972C27.5825 2.02332 28.2948 2.07102 29.0027 2.02705C29.5972 1.98979 29.7497 2.23124 29.7483 2.81551C29.7331 10.2739 29.7389 17.733 29.7374 25.1914C29.7374 25.9538 29.7107 25.9813 28.9485 25.9821C25.9344 25.9851 22.9203 25.9836 19.9063 25.9836C16.9689 25.9836 14.0314 25.9843 11.0947 25.9836C10.7852 25.9836 10.4822 25.9687 10.2812 26.2966C9.38089 27.7699 8.47262 29.2366 7.56725 30.7054ZM27.8573 14.0031C27.8573 10.9349 27.85 7.8675 27.8645 4.80009C27.8674 4.24489 27.7285 3.94083 27.1233 3.96318C26.5296 3.98554 25.9337 3.93039 25.3385 3.91847C24.4028 3.89984 24.4028 3.90282 24.3876 2.9273C24.3753 2.16417 24.3457 2.13064 23.595 2.13064C21.2137 2.12915 18.8324 2.12989 16.4504 2.12989C15.2608 2.12989 15.2897 2.04121 15.323 3.28054C15.3367 3.80072 15.1241 3.99001 14.6425 3.98107C13.894 3.96691 13.1441 3.99448 12.3957 3.97734C11.9285 3.96691 11.747 4.15769 11.7528 4.64657C11.7716 6.18997 11.7673 7.73411 11.7543 9.2775C11.7514 9.64565 11.8598 9.91021 12.1375 10.1487C12.9605 10.8552 13.5882 11.7204 14.0481 12.7198C15.0959 14.9972 14.7748 17.2158 13.8196 19.4225C13.2244 20.7967 12.5931 22.1515 11.8714 23.4594C11.6574 23.8477 11.695 24.0296 12.178 24.0266C14.252 24.0161 16.3267 24.0176 18.4007 24.0243C18.7883 24.0258 18.9647 23.8626 18.9582 23.4594C18.9481 22.8461 18.9575 22.232 18.9582 21.6187C18.959 20.2713 18.9582 20.2877 20.2678 20.3302C20.7263 20.3451 20.8702 20.5456 20.8608 20.9845C20.8449 21.7364 20.8558 22.4884 20.8587 23.2403C20.8623 23.993 20.884 24.0199 21.5999 24.0206C23.4049 24.0236 25.2105 24.0228 27.0155 24.0214C27.8182 24.0206 27.8565 23.9826 27.8573 23.1464C27.8587 20.0992 27.8573 17.0511 27.8573 14.0031ZM2.04531 15.8446C2.05109 15.9482 2.04603 16.2276 2.08797 16.4996C2.12991 16.7716 2.20368 17.0407 2.28901 17.3023C3.42868 20.8056 5.36093 23.8835 7.21218 27.0038C7.42985 27.3705 7.55712 27.1544 7.69452 26.93C9.13647 24.5684 10.5264 22.1754 11.6776 19.6468C12.2062 18.4864 12.7761 17.3142 12.8216 16.0018C12.9258 12.9881 10.5777 10.4028 7.70537 10.3119C4.59801 10.2135 2.15884 12.5253 2.04531 15.8446Z" fill="white"/>
<path d="M17.2935 11.5894C17.0636 11.5894 16.8329 11.5894 16.6029 11.5894C15.5616 11.5879 15.1639 10.9642 15.5276 9.92083C15.6108 9.68161 15.7821 9.64659 15.9803 9.64584C16.8632 9.64286 17.7455 9.64882 18.6284 9.64211C18.9625 9.63988 19.1202 9.78893 19.1231 10.1377C19.1375 11.7497 19.2323 11.5738 17.8691 11.5894C17.6775 11.5917 17.4852 11.5894 17.2935 11.5894Z" fill="white"/>
<path d="M17.2922 15.057C16.8503 15.057 16.4085 15.0556 15.9666 15.0578C15.6571 15.0593 15.5089 14.8983 15.5024 14.5861C15.5017 14.5466 15.4995 14.5071 15.4966 14.4676C15.4149 13.1112 15.4207 13.1038 16.7281 13.1045C17.3428 13.1045 17.9575 13.1127 18.5721 13.1075C18.9547 13.1038 19.1102 13.2767 19.1304 13.6791C19.2005 15.0645 19.2114 15.0638 17.8678 15.0645C17.6754 15.0645 17.4838 15.0645 17.2914 15.0645C17.2922 15.0615 17.2922 15.0593 17.2922 15.057Z" fill="white"/>
<path d="M22.493 15.0578C22.0511 15.0578 21.61 15.0548 21.1682 15.0585C20.8572 15.0615 20.7119 14.899 20.7003 14.5898C20.6988 14.5503 20.696 14.5108 20.6938 14.4713C20.6027 13.1321 20.6273 13.1038 21.9224 13.1045C22.5364 13.1045 23.151 13.1127 23.765 13.1075C24.1446 13.1045 24.3037 13.2692 24.3225 13.6754C24.3854 15.0645 24.3977 15.0637 23.0686 15.0637C22.877 15.0637 22.6846 15.0637 22.493 15.0637C22.493 15.0615 22.493 15.06 22.493 15.0578Z" fill="white"/>
<path d="M17.2942 18.6303C17.0252 18.6303 16.7548 18.6496 16.4887 18.625C16.1784 18.596 15.7467 18.792 15.5898 18.4358C15.3837 17.9677 15.4575 17.4252 15.5544 16.9199C15.5934 16.715 15.8046 16.6889 15.9788 16.6874C16.8618 16.6815 17.7448 16.6829 18.6277 16.6844C18.9503 16.6852 19.0992 16.8387 19.1281 17.1882C19.2453 18.5833 19.2128 18.6295 17.8706 18.6295C17.6782 18.6303 17.4859 18.6303 17.2942 18.6303Z" fill="white"/>
<path d="M22.4886 18.6243C22.0475 18.6243 21.6064 18.6258 21.1646 18.6235C20.9606 18.6228 20.7668 18.5788 20.7307 18.3299C20.6649 17.8783 20.6576 17.4229 20.7336 16.9728C20.7748 16.7291 20.9823 16.6881 21.1797 16.6866C22.062 16.6814 22.9449 16.6829 23.8272 16.6852C24.1504 16.6859 24.3153 16.8394 24.3168 17.1927C24.3262 18.894 24.4071 18.6004 23.0643 18.6295C22.8726 18.6332 22.6803 18.6302 22.4886 18.6302C22.4886 18.628 22.4886 18.6265 22.4886 18.6243Z" fill="white"/>
<path d="M17.3492 6.07918C17.7708 6.07918 18.1924 6.08887 18.6132 6.0762C18.9842 6.06502 19.1383 6.24686 19.1231 6.61277C19.1223 6.63215 19.1238 6.65227 19.1252 6.67164C19.1918 8.01233 19.1918 8.01383 17.8843 8.01233C17.2718 8.01159 16.6586 8.00414 16.0461 8.00339C15.6693 8.00265 15.5124 7.82602 15.4914 7.42657C15.4206 6.08141 15.4155 6.07471 16.7179 6.07471C16.9283 6.07471 17.1395 6.07471 17.3499 6.07471C17.3492 6.07694 17.3492 6.07769 17.3492 6.07918Z" fill="white"/>
<path d="M22.4864 8.01258C22.2564 8.01258 22.0272 8.01258 21.7972 8.01258C20.7675 8.01035 20.3517 7.3523 20.7306 6.3425C20.8195 6.10551 20.9924 6.08017 21.1891 6.08017C22.0691 6.07794 22.9499 6.08464 23.83 6.07719C24.1677 6.07421 24.3152 6.22698 24.3152 6.57427C24.3145 8.14076 24.4671 7.99693 23.0606 8.01333C22.8689 8.01482 22.6773 8.01258 22.4864 8.01258Z" fill="white"/>
<path d="M22.5037 11.5862C22.1204 11.5862 21.7364 11.5713 21.3539 11.5899C20.8549 11.6138 20.6901 11.3731 20.6835 10.8767C20.6662 9.63965 20.6496 9.63965 21.8594 9.63965C22.5109 9.63965 23.1625 9.6471 23.814 9.64188C24.1402 9.6389 24.3137 9.76858 24.3145 10.1263C24.3202 11.7524 24.4533 11.5728 23.0208 11.5892C22.8486 11.5914 22.6758 11.5892 22.503 11.5892C22.5037 11.5885 22.5037 11.587 22.5037 11.5862Z" fill="white"/>
<path d="M7.45735 19.468C5.49039 19.4762 3.9349 17.9059 3.90887 15.8856C3.88356 13.8906 5.45496 12.2548 7.40456 12.2481C9.3679 12.2406 10.9393 13.8302 10.9487 15.8319C10.9581 17.8471 9.40912 19.4605 7.45735 19.468ZM9.05261 15.8558C9.05188 14.8974 8.32657 14.1387 7.42119 14.1469C6.531 14.1551 5.76519 14.9518 5.7688 15.8647C5.77242 16.7702 6.56209 17.5862 7.42914 17.5803C8.33452 17.5736 9.05405 16.8097 9.05261 15.8558Z" fill="white"/>
</g>
<defs>
<clipPath id="clip0_71_27">
<rect width="29.5571" height="30.4528" fill="white" transform="translate(0.191162 0.25293)"/>
</clipPath>
</defs>
</svg>
