<svg width="41" height="40" viewBox="0 0 41 40" fill="none" xmlns="http://www.w3.org/2000/svg">
<path d="M21.5011 25.4588C21.4999 28.5652 19.1412 31.2033 16.0868 31.5418C14.786 31.6857 13.5642 31.4628 12.4226 30.8389C12.1384 30.6833 11.9556 30.7316 11.7492 30.9403C11.4933 31.1998 11.2208 31.4416 10.9555 31.6916C10.8258 31.8142 10.7467 31.9487 10.7762 32.1456C10.8729 32.8202 10.6606 33.3993 10.1724 33.8639C9.1169 34.8687 8.05196 35.8641 6.98938 36.8618C6.29357 37.514 5.6013 38.1708 4.89842 38.8136C4.21676 39.4375 3.02092 39.4528 2.32629 38.8289C1.94419 38.4869 1.59628 38.1048 1.25663 37.7192C0.59149 36.962 0.629228 35.6553 1.53614 34.8274C2.95252 33.5349 4.34059 32.2105 5.74164 30.9002C5.98459 30.6738 6.23343 30.4533 6.46575 30.2162C6.9941 29.6761 7.63212 29.4697 8.3692 29.5853C8.56379 29.616 8.70885 29.57 8.83268 29.4414C9.13695 29.1265 9.45419 28.8246 9.79502 28.5487C9.95069 28.4225 9.90116 28.2986 9.83275 28.1512C9.51551 27.4648 9.30913 26.749 9.23955 25.9919C9.10511 24.5448 9.44947 23.2145 10.255 22.0234C11.4968 20.186 13.2788 19.285 15.4712 19.3015C18.8146 19.3263 21.5023 22.1071 21.5011 25.4588ZM3.61884 37.8737C3.77569 37.889 3.89952 37.8088 4.01274 37.7038C4.42786 37.3194 4.84299 36.9325 5.2593 36.5481C5.93505 35.9254 6.58133 35.2744 7.2677 34.6623C7.91516 34.0856 8.53313 33.4759 9.15464 32.8709C9.4306 32.602 9.47542 32.2919 9.2596 32.0383C8.99071 31.7211 8.70177 31.4168 8.39633 31.1326C8.12154 30.8767 7.85029 30.8873 7.56254 31.1338C7.32667 31.3354 7.10377 31.5512 6.87852 31.7647C6.12493 32.4782 5.37723 33.1976 4.6201 33.9087C3.88655 34.5975 3.14239 35.2756 2.41002 35.9655C2.15647 36.2037 2.12345 36.4585 2.31686 36.745C2.57513 37.1271 2.91596 37.4408 3.25089 37.7545C3.34877 37.8453 3.47732 37.8795 3.61884 37.8737ZM20.0765 25.4482C20.0717 22.7817 17.9713 20.7132 15.2718 20.7143C12.754 20.7155 10.6276 22.8784 10.6206 25.4234C10.6123 28.0097 12.6655 30.1714 15.3178 30.1832C17.9666 30.195 20.0941 28.1029 20.0765 25.4482ZM9.98017 30.6337C10.0002 30.6266 10.025 30.6243 10.0391 30.6113C10.3175 30.3483 10.5958 30.0865 10.8694 29.8188C10.9189 29.7704 10.9142 29.6997 10.8564 29.649C10.7857 29.5865 10.7125 29.6101 10.6559 29.6643C10.3929 29.9131 10.1335 30.1655 9.87403 30.4167C9.83157 30.458 9.81624 30.5063 9.85044 30.5594C9.87875 30.6066 9.92002 30.6396 9.98017 30.6337Z" fill="white"/>
<path d="M30.2942 20.2673C30.2942 16.6633 30.2942 13.0604 30.2942 9.45637C30.2942 8.82189 30.5277 8.5872 31.1669 8.5872C32.6894 8.58602 34.2131 8.58602 35.7356 8.58838C36.3501 8.58956 36.619 8.85255 36.619 9.46934C36.6213 16.6656 36.6201 23.8619 36.6213 31.0582C36.6213 31.2104 36.606 31.359 36.5576 31.5017C36.4468 31.8236 36.1755 31.9982 35.8359 31.9687C35.5163 31.9416 35.2498 31.6963 35.2061 31.3767C35.1884 31.2505 35.1967 31.1196 35.1967 30.991C35.1967 24.2346 35.1967 17.4782 35.1967 10.7206C35.1967 10.5602 35.192 10.3987 35.1955 10.2383C35.2002 10.0649 35.1248 9.98117 34.9479 9.98117C33.9395 9.98235 32.9312 9.97999 31.924 9.98117C31.7519 9.98117 31.6717 10.0732 31.6752 10.2453C31.6776 10.3633 31.674 10.4812 31.674 10.5991C31.674 17.431 31.674 24.2629 31.6728 31.0948C31.6728 31.254 31.6917 31.4168 31.6221 31.5701C31.4959 31.8472 31.2023 32.0064 30.8815 31.9651C30.5725 31.9251 30.3591 31.721 30.3107 31.3991C30.2918 31.2729 30.2977 31.142 30.2977 31.0134C30.293 27.4318 30.2942 23.849 30.2942 20.2673Z" fill="white"/>
<path d="M8.73712 9.22226C8.89043 9.20811 9.1204 9.23523 9.32325 9.32958C9.53907 9.42982 9.70771 9.38736 9.89169 9.26825C11.5687 8.18916 13.2469 7.11243 14.9274 6.04041C15.1008 5.92956 15.1633 5.79983 15.1657 5.59345C15.181 4.09215 16.6186 3.27134 17.9005 4.03555C18.4501 4.3634 18.7025 4.89292 18.7143 5.51915C18.719 5.80455 18.8251 5.95904 19.0622 6.1041C20.7357 7.12658 22.4021 8.16086 24.0685 9.19631C24.2524 9.31071 24.4246 9.36496 24.6416 9.29538C24.953 9.19513 25.2785 9.19513 25.5957 9.26236C25.7785 9.30127 25.9 9.2482 26.0203 9.1173C27.2185 7.80234 28.4202 6.4921 29.6208 5.1795C30.2494 4.49195 30.8685 3.79378 31.5136 3.12156C31.7082 2.91872 31.7542 2.73592 31.7058 2.46585C31.5042 1.33959 32.1882 0.440934 33.318 0.317103C34.2107 0.219219 35.0976 0.932716 35.2049 1.83609C35.3252 2.85149 34.6601 3.7525 33.7095 3.85629C33.5822 3.87044 33.443 3.90464 33.3274 3.86808C32.9276 3.74189 32.68 3.91525 32.4193 4.20301C30.7435 6.05339 29.0523 7.88961 27.3659 9.73055C27.2727 9.83315 27.2008 9.96052 27.0946 10.0454C26.8918 10.2082 26.8611 10.3863 26.9189 10.6375C27.1229 11.5314 26.6005 12.4206 25.7396 12.693C24.8456 12.9761 23.9152 12.5598 23.5496 11.7095C23.4151 11.397 23.3632 11.0679 23.4222 10.7342C23.4552 10.5478 23.408 10.4358 23.2465 10.3367C22.0035 9.57606 20.764 8.80949 19.5245 8.04292C19.087 7.77286 18.6459 7.50869 18.2154 7.22682C18.0173 7.0971 17.8475 7.07115 17.621 7.1714C17.1599 7.3766 16.6764 7.3825 16.2165 7.16786C16.0089 7.07115 15.8615 7.10535 15.6846 7.21975C14.1904 8.18562 12.6914 9.14442 11.1937 10.1056C11.1489 10.1351 11.1064 10.1681 11.0592 10.1929C10.6771 10.3933 10.4354 10.6139 10.4413 11.1399C10.4483 11.9041 9.96952 12.4525 9.24777 12.6919C8.51305 12.9372 7.84554 12.7485 7.32192 12.1588C6.84311 11.6187 6.74404 10.8049 7.112 10.1445C7.44457 9.55483 7.95876 9.21754 8.73712 9.22226ZM33.4288 1.72759C33.2401 1.77712 33.0833 1.86439 33.0904 2.08964C33.0975 2.31136 33.2201 2.46231 33.4501 2.46231C33.6789 2.46231 33.8109 2.31136 33.8121 2.092C33.8133 1.85849 33.6447 1.76415 33.4288 1.72759ZM16.93 5.8871C17.1434 5.87177 17.2838 5.76445 17.2885 5.55335C17.2932 5.33871 17.1729 5.17124 16.9488 5.16535C16.7318 5.15945 16.5832 5.30687 16.5714 5.52269C16.5585 5.75148 16.7153 5.85998 16.93 5.8871ZM8.64867 11.3569C8.87274 11.3415 9.02488 11.2366 9.04257 11.0113C9.06144 10.7754 8.89751 10.6493 8.69112 10.6375C8.46941 10.6233 8.33025 10.779 8.32435 10.9948C8.31846 11.1953 8.43875 11.3285 8.64867 11.3569ZM25.2042 11.3592C25.3929 11.3238 25.5367 11.22 25.532 11.0031C25.5273 10.7825 25.4058 10.6257 25.1747 10.6339C24.9718 10.641 24.8303 10.7707 24.828 10.9842C24.8268 11.2118 24.9671 11.3309 25.2042 11.3592Z" fill="white"/>
<path d="M22.0459 23.95C22.0459 21.5477 22.0471 19.1454 22.0447 16.7431C22.0447 16.223 22.2936 15.9482 22.8255 15.9376C23.5331 15.9246 24.2407 15.9341 24.9483 15.9329C25.7738 15.9329 26.5993 15.9305 27.426 15.9329C28.0876 15.9352 28.3624 16.2041 28.3719 16.8728C28.3801 17.4413 28.3742 18.0097 28.3742 18.5781C28.3742 22.6421 28.3742 26.7073 28.3742 30.7713C28.3742 30.9859 28.3789 31.2005 28.3306 31.4116C28.2445 31.7867 27.9603 31.9966 27.5794 31.9648C27.222 31.9341 26.9803 31.6841 26.9543 31.3079C26.9461 31.1899 26.9508 31.072 26.9508 30.9541C26.9508 26.5787 26.9508 22.2034 26.9508 17.8281C26.9508 17.3611 26.9496 17.3587 26.4932 17.3587C25.6134 17.3575 24.7348 17.3575 23.855 17.3587C23.434 17.3599 23.4257 17.3681 23.4257 17.7939C23.4257 22.1692 23.4257 26.5445 23.4257 30.9199C23.4257 31.059 23.4316 31.1994 23.4198 31.3373C23.3868 31.7242 23.0967 31.9742 22.7028 31.9671C22.3219 31.96 22.0613 31.7136 22.053 31.3161C22.0412 30.6946 22.0483 30.0719 22.0483 29.4504C22.0483 27.6165 22.0483 25.7827 22.0483 23.9488C22.0471 23.95 22.0471 23.95 22.0459 23.95Z" fill="white"/>
<path d="M25.9943 33.063C30.5855 33.063 35.1754 33.063 39.7666 33.063C40.3681 33.063 40.6405 33.3012 40.624 33.806C40.6122 34.1609 40.4223 34.3921 40.0744 34.457C39.96 34.4782 39.8397 34.4747 39.7218 34.4747C30.6043 34.4758 21.4869 34.4758 12.3695 34.4747C12.2091 34.4747 12.0452 34.4794 11.8883 34.4534C11.5439 34.3968 11.3128 34.115 11.314 33.78C11.3151 33.418 11.5451 33.1396 11.9013 33.0819C12.0275 33.0618 12.1572 33.0642 12.2857 33.0642C16.8557 33.063 21.4244 33.063 25.9943 33.063Z" fill="white"/>
<path d="M20.093 15.6572C20.093 16.8365 20.0977 18.0159 20.0906 19.1964C20.0882 19.6717 19.7863 19.9653 19.3559 19.9453C18.9584 19.9264 18.7025 19.641 18.7025 19.2212C18.7037 17.2057 18.7049 15.189 18.7049 13.1735C18.7049 12.7325 18.7037 12.7313 18.2591 12.7301C17.3899 12.7289 16.5219 12.7289 15.6528 12.7301C15.1822 12.7301 15.181 12.7313 15.181 13.2195C15.181 14.7527 15.1822 16.287 15.1799 17.8201C15.1799 17.9687 15.1763 18.1232 15.1421 18.2659C15.0702 18.5666 14.786 18.7718 14.4758 18.7718C14.181 18.7718 13.9026 18.5772 13.8236 18.2907C13.7847 18.148 13.7706 17.9947 13.7706 17.8461C13.767 15.9804 13.7658 14.1146 13.7682 12.2489C13.7694 11.5614 14.017 11.3102 14.6975 11.3078C16.1776 11.3043 17.6576 11.3043 19.1365 11.3078C19.8606 11.309 20.0918 11.5484 20.093 12.2796C20.0941 13.4059 20.093 14.531 20.093 15.6572Z" fill="white"/>
<path d="M5.52347 23.6849C5.52347 21.9902 5.52229 20.2955 5.52347 18.5997C5.52347 17.9935 5.77938 17.7305 6.37731 17.7293C7.92223 17.7269 9.46716 17.7269 11.0121 17.7293C11.5711 17.7305 11.84 17.9982 11.8494 18.556C11.8541 18.8674 11.86 19.1787 11.8459 19.4889C11.8258 19.9441 11.531 20.2413 11.1253 20.2366C10.7232 20.2319 10.4637 19.9535 10.4661 19.4842C10.4684 19.2223 10.3977 19.1374 10.1205 19.1433C9.17705 19.1634 8.2324 19.1598 7.28893 19.1469C7.00235 19.1433 6.89503 19.2271 6.89621 19.5313C6.90683 22.653 6.90211 25.7747 6.90565 28.8964C6.90565 29.354 6.68511 29.6017 6.24168 29.617C5.82892 29.6323 5.5329 29.3611 5.52819 28.9294C5.51875 28.0284 5.52465 27.1274 5.52465 26.2264C5.52347 25.3797 5.52347 24.5329 5.52347 23.6849Z" fill="white"/>
<path d="M11.1677 25.4397C11.1299 23.206 12.9898 21.3156 15.2352 21.2578C17.4842 21.2 19.5351 22.8947 19.5445 25.4562C19.5539 27.8396 17.667 29.5933 15.4404 29.6393C13.0652 29.6877 11.2078 27.8479 11.1677 25.4397ZM15.3661 28.2288C16.8639 28.2394 18.1234 26.9835 18.1375 25.4645C18.1517 23.9502 16.9016 22.6789 15.372 22.6529C13.8648 22.627 12.5652 23.9231 12.5593 25.4574C12.5534 26.9622 13.8259 28.2182 15.3661 28.2288Z" fill="white"/>
</svg>
