<svg width="48" height="37" viewBox="0 0 48 37" fill="none" xmlns="http://www.w3.org/2000/svg">
<g filter="url(#filter0_d_0_19)">
<path d="M7.53024 0.848633H21.4815C22.2215 0.848633 22.9312 1.1426 23.4545 1.66588C23.9778 2.18915 24.2717 2.89886 24.2717 3.63888C24.2717 4.3789 23.9778 5.08861 23.4545 5.61188C22.9312 6.13516 22.2215 6.42913 21.4815 6.42913H7.53024C6.79022 6.42913 6.08051 6.13516 5.55724 5.61188C5.03396 5.08861 4.73999 4.3789 4.73999 3.63888C4.73999 2.89886 5.03396 2.18915 5.55724 1.66588C6.08051 1.1426 6.79022 0.848633 7.53024 0.848633ZM7.53024 12.0096H41.0132C41.7532 12.0096 42.4629 12.3036 42.9862 12.8269C43.5095 13.3501 43.8035 14.0599 43.8035 14.7999C43.8035 15.5399 43.5095 16.2496 42.9862 16.7729C42.4629 17.2962 41.7532 17.5901 41.0132 17.5901H7.53024C6.79022 17.5901 6.08051 17.2962 5.55724 16.7729C5.03396 16.2496 4.73999 15.5399 4.73999 14.7999C4.73999 14.0599 5.03396 13.3501 5.55724 12.8269C6.08051 12.3036 6.79022 12.0096 7.53024 12.0096Z" fill="white"/>
<path d="M22.272 23.1709H8.32081C7.58079 23.1709 6.87108 23.4649 6.3478 23.9881C5.82453 24.5114 5.53056 25.2211 5.53056 25.9611C5.53056 26.7012 5.82453 27.4109 6.3478 27.9342C6.87108 28.4574 7.58079 28.7514 8.32081 28.7514H22.272C23.0121 28.7514 23.7218 28.4574 24.2451 27.9342C24.7683 27.4109 25.0623 26.7012 25.0623 25.9611C25.0623 25.2211 24.7683 24.5114 24.2451 23.9881C23.7218 23.4649 23.0121 23.1709 22.272 23.1709Z" fill="white"/>
</g>
<defs>
<filter id="filter0_d_0_19" x="0.73999" y="0.848633" width="47.0635" height="35.9028" filterUnits="userSpaceOnUse" color-interpolation-filters="sRGB">
<feFlood flood-opacity="0" result="BackgroundImageFix"/>
<feColorMatrix in="SourceAlpha" type="matrix" values="0 0 0 0 0 0 0 0 0 0 0 0 0 0 0 0 0 0 127 0" result="hardAlpha"/>
<feOffset dy="4"/>
<feGaussianBlur stdDeviation="2"/>
<feComposite in2="hardAlpha" operator="out"/>
<feColorMatrix type="matrix" values="0 0 0 0 0 0 0 0 0 0 0 0 0 0 0 0 0 0 0.25 0"/>
<feBlend mode="normal" in2="BackgroundImageFix" result="effect1_dropShadow_0_19"/>
<feBlend mode="normal" in="SourceGraphic" in2="effect1_dropShadow_0_19" result="shape"/>
</filter>
</defs>
</svg>
